<?xml version="1.0" encoding="UTF-8"?>
<svg xmlns="http://www.w3.org/2000/svg" viewBox="0 0 2400 1260" width="2400" height="1260" role="img" aria-label="FromHere by GritVib">
  <title>FromHere by GritVib</title>
  <rect x="0" y="0" width="2400" height="1260" fill="#000000"/>
  <rect x="180" y="270" width="720" height="720" rx="160" fill="#e64a19"/>
  <svg x="240" y="330" width="600" height="600" viewBox="140 154 720 720">
    <g transform="translate(0 24) translate(500 513.875) scale(1.07) translate(-500 -513.875)">
      <polygon fill="#000000" points="766.38 256.39 705.86 359.43 738.47 359.43 798.73 256.39 766.38 256.39"/>
      <polygon fill="#000000" points="688.38 359.43 749.95 256.39 717.34 256.39 656.03 359.43 688.38 359.43"/>
      <polygon fill="#000000" points="638.55 359.43 699.34 256.39 666.21 256.39 604.64 359.43 638.55 359.43"/>
      <path fill="#ffffff" d="M441.73,465.15h147.91l-89.61,156.33-165.91-284.28h174.13l-12.91,22.24h89.02l61.24-103.04c.2,0-444.33,0-444.33,0l305.41,514.96,221.48-388.37h-334.37l47.93,82.17Z"/>
    </g>
  </svg>
  <text x="1660" y="630" text-anchor="middle" dominant-baseline="middle" font-family="system-ui, -apple-system, 'Segoe UI', Roboto, Helvetica, Arial, sans-serif" font-size="280" font-weight="800" letter-spacing="-6">
    <tspan fill="#e64a19">From</tspan><tspan fill="#ffffff">Here</tspan>
  </text>
</svg>
