<?xml version="1.0" encoding="UTF-8"?>
<svg xmlns="http://www.w3.org/2000/svg" viewBox="0 0 1200 400" width="1200" height="400" role="img" aria-label="FromHere by GritVib">
  <title>FromHere by GritVib</title>
  <rect x="40" y="80" width="240" height="240" rx="48" fill="#e64a19"/>
  <svg x="52" y="92" width="216" height="216" viewBox="140 154 720 720">
    <g transform="translate(0 24) translate(500 513.875) scale(1.07) translate(-500 -513.875)">
      <polygon fill="#000000" points="766.38 256.39 705.86 359.43 738.47 359.43 798.73 256.39 766.38 256.39"/>
      <polygon fill="#000000" points="688.38 359.43 749.95 256.39 717.34 256.39 656.03 359.43 688.38 359.43"/>
      <polygon fill="#000000" points="638.55 359.43 699.34 256.39 666.21 256.39 604.64 359.43 638.55 359.43"/>
      <path fill="#ffffff" d="M441.73,465.15h147.91l-89.61,156.33-165.91-284.28h174.13l-12.91,22.24h89.02l61.24-103.04c.2,0-444.33,0-444.33,0l305.41,514.96,221.48-388.37h-334.37l47.93,82.17Z"/>
    </g>
  </svg>
  <text x="328" y="200" font-family="system-ui, -apple-system, 'Segoe UI', Roboto, Helvetica, Arial, sans-serif" font-size="108" font-weight="700" letter-spacing="-2.7" text-anchor="start">
    <tspan fill="#e64a19">Grit</tspan><tspan fill="#0a0a0a">Vib</tspan>
  </text>
  <text x="328" y="268" font-family="system-ui, -apple-system, 'Segoe UI', Roboto, Helvetica, Arial, sans-serif" font-size="66" font-weight="600" letter-spacing="11.88" fill="#71717a">FROMHERE</text>
</svg>
